<?xml version="1.0" standalone="no"?>
<!DOCTYPE svg PUBLIC "-//W3C//DTD SVG 20010904//EN"
 "http://www.w3.org/TR/2001/REC-SVG-20010904/DTD/svg10.dtd">
<svg version="1.0" xmlns="http://www.w3.org/2000/svg"
 width="512.000000pt" height="512.000000pt" viewBox="0 0 512.000000 512.000000"
 preserveAspectRatio="xMidYMid meet">
<metadata>
Created by potrace 1.14, written by Peter Selinger 2001-2017
</metadata>
<g transform="translate(0.000000,512.000000) scale(0.100000,-0.100000)"
fill="#000000" stroke="none">
<path d="M2325 4229 c-606 -48 -1091 -268 -1226 -554 -76 -161 -46 -385 51
-385 33 0 59 19 170 125 147 140 296 225 475 270 76 20 253 47 262 41 1 -1
-23 -62 -53 -136 -54 -133 -189 -521 -239 -693 -15 -49 -32 -90 -38 -92 -255
-77 -368 -131 -465 -221 -71 -65 -99 -109 -109 -169 -4 -27 -1 -36 19 -49 22
-14 42 -15 174 -6 82 6 178 15 214 20 35 5 65 8 66 7 2 -1 -13 -63 -32 -137
-123 -482 -174 -894 -145 -1165 21 -185 40 -205 201 -205 182 0 321 41 389
115 50 54 58 85 65 265 7 163 41 418 87 638 39 191 129 554 140 566 4 5 175 1
412 -9 400 -18 405 -18 438 1 47 28 64 63 110 220 34 120 38 142 28 171 -7 21
-21 38 -36 44 -13 5 -124 10 -246 10 -122 1 -304 4 -403 8 l-181 6 28 95 c61
198 138 489 160 603 l23 119 570 -4 c540 -3 573 -2 614 16 50 22 107 84 123
135 6 20 32 80 56 134 36 80 44 105 39 133 -13 67 -20 68 -396 75 -714 14
-1240 17 -1345 8z"/>
</g>
</svg>
